# xmcd CD database file
# Copyright (C) 1996 Ti Kan
#
# Track frame offsets:
#  182
#  19007
#  39035
#  57210
#  75740
#  100325
#  117685
#  134557
#  154800
#  176125
#
# Disc length: 2617 seconds
#
# Revision: 1
# Processed by: cddbd v1.4b41PL1 Copyright (c) Steve Scherf et al.
# Submitted via: CDWizzard Release:4.14
#
DISCID=810a370a
DTITLE=Iztok Novak, Aleksander Novak - Galeb
DYEAR=1900
DGENRE=
TTITLE0=Si kje zdaj
TTITLE1=Toplo je doma
TTITLE2=Ona
TTITLE3=Pralni stroj
TTITLE4=Galeb
TTITLE5=Starec
TTITLE6=Kje si, metulj?
TTITLE7=Sin
TTITLE8=Kaktus srehe
TTITLE9=Imagine
EXTD=Iztok Novak is his real name, but he is called easy by all. The date
EXTD=is not specified, but it is sure that is or 96, or 97. \n          
EXTD=                                               MaxZ
EXTT0=Iztok Novak
EXTT1=Iztok Novak
EXTT2=Iztok Novak
EXTT3=Iztok Novak
EXTT4=Iztok Novak
EXTT5=Iztok Novak
EXTT6=Iztok Novak, Aleksander Novak
EXTT7=Iztok Novak
EXTT8=Iztok Novak, Aleksander Novak
EXTT9=Iztok Novak
PLAYORDER=
